<svg xmlns="http://www.w3.org/2000/svg" viewBox="0 0 32 32">
  <defs>
    <linearGradient id="grad" x1="0%" y1="0%" x2="100%" y2="100%">
      <stop offset="0%" style="stop-color:#D97706;stop-opacity:1" />
      <stop offset="100%" style="stop-color:#B45309;stop-opacity:1" />
    </linearGradient>
  </defs>
  <!-- Background -->
  <rect width="32" height="32" fill="#ffffff"/>
  <!-- Main letter S -->
  <path d="M 10 8 Q 10 6 12 6 L 20 6 Q 22 6 22 8 Q 22 10 20 10 L 12 10 Q 10 10 10 12 L 10 15 Q 10 17 12 17 L 20 17 Q 22 17 22 19 Q 22 21 20 21 L 12 21 Q 10 21 10 23 Q 10 26 12 26 L 20 26 Q 22 26 22 24" 
        fill="none" stroke="url(#grad)" stroke-width="2.5" stroke-linecap="round" stroke-linejoin="round"/>
</svg>